<svg width="266" height="23" viewBox="0 0 266 23" fill="none" xmlns="http://www.w3.org/2000/svg">
<path d="M0.022426 12.3662C0.0687034 12.0737 0.126291 11.768 0.193455 11.4552C0.592678 9.38672 2.14829 7.40981 3.45781 6.45074C3.9568 6.07349 3.82079 6.39575 4.16504 6.16247C4.84589 5.71491 5.41875 5.26031 6.10916 4.95835C6.33846 4.86035 6.19083 5.22913 6.42652 5.12352C7.70055 4.56162 8.84492 4.02592 10.1072 3.63576C13.6173 2.57619 17.0165 1.9809 20.3902 1.33003C23.0916 0.814829 25.8269 0.510402 28.5806 0.364334C30.6716 0.249198 33.189 0.412707 35.3284 0.335941C35.5794 0.326491 35.4322 0.10396 35.4801 0.0862121C36.2268 -0.18346 35.9736 0.259867 36.4585 0.328093C38.3814 0.599779 40.5095 0.72524 42.3575 0.77062C43.1437 0.789988 42.3901 0.294641 43.1602 0.598999C43.2137 0.61976 42.9974 0.838806 43.2101 0.880079C43.6947 0.972795 44.6175 1.0077 44.9938 1.06038C45.722 1.16284 45.8333 1.1711 46.5214 1.24073C47.4589 1.33832 48.5579 1.57347 49.5653 1.63701C49.7813 1.65001 49.5246 1.37771 49.8724 1.37715C50.2195 1.37615 51.1173 1.50594 51.4176 1.60131C51.7168 1.69615 51.5617 1.86734 51.6103 1.91718C52.0018 2.33482 53.1137 1.97009 53.2485 1.97609C55.7207 2.09359 57.7703 2.69504 60.0501 3.06123C61.7852 3.33972 63.6449 3.56038 65.2859 3.86487C65.6351 3.92978 65.9752 3.99728 66.3095 4.06631C67.8577 4.38699 69.242 4.7697 70.8005 5.11653C70.9996 5.16138 70.8315 4.83083 71.0756 4.88542C73.6834 5.47148 76.221 6.19863 78.7013 7.11506C78.9504 7.20748 78.5533 7.35102 78.7979 7.45764C80.2954 8.10261 82.589 9.30905 83.8219 8.55626C84.854 8.91605 86.108 9.34976 86.9751 9.84733C87.5343 10.1679 86.8704 10.2451 87.6427 10.3642C87.8168 10.3913 87.6707 10.0977 87.9264 10.1555C89.0021 10.3991 90.128 10.8303 91.2012 11.0343C91.4204 11.0754 91.4253 10.8546 91.4966 10.8366C92.0912 10.6965 92.7762 11.4431 92.9484 11.5348C94.2568 12.2263 95.3033 12.4296 96.5985 12.8212C96.8983 12.9118 96.6246 12.5332 96.9156 12.6103C98.4273 13.0148 99.974 13.4836 101.414 14.0051C101.733 14.1213 101.369 14.2747 101.519 14.3422C102.185 14.638 102.451 14.2333 103.092 14.5019C103.227 14.5578 103.096 14.7389 103.116 14.7676C103.338 15.0883 103.641 14.9754 103.834 14.8884C103.913 14.8535 103.975 14.8229 104.006 14.8272C105.344 15.0025 106.064 15.7205 107.348 15.9374C107.502 15.9626 107.219 15.6284 107.647 15.7146C110.499 16.2865 113.498 16.9454 116.308 17.5791C116.746 17.6773 116.401 17.8257 116.425 17.854C116.828 18.299 117.191 17.8343 117.34 17.8357C118.496 17.8578 119.516 18.4093 120.359 17.8877C124.109 18.4567 127.89 18.4326 131.66 18.5406C132.738 18.5719 133.808 18.6193 134.877 18.6982C134.94 18.7021 134.838 18.9576 134.962 18.9643C136.456 19.0433 136.149 18.6638 137.104 18.136C137.342 18.0035 138.122 18.5351 138.193 18.5726C138.446 18.7129 138.217 19.1019 138.301 19.1269C138.992 19.3199 138.792 18.095 139.697 18.0298C139.726 18.0298 139.624 18.2655 139.701 18.2825C139.942 18.3361 140.168 18.2283 140.403 18.2886C140.938 18.4281 141.188 19.0115 141.959 18.5923C142.057 18.5376 141.837 17.8548 142.646 17.8123C142.965 17.7978 144.383 17.6403 144.778 17.6399C145.181 17.6405 144.933 17.8957 144.963 17.9023C146.07 18.0765 145.676 18.2458 146.264 18.6212C146.86 18.9923 146.58 17.967 146.784 17.8231C146.988 17.6801 147.798 17.8223 148.005 17.88C148.21 17.9388 147.989 18.1139 148.167 18.1386C149.343 18.2951 148.589 17.5526 148.94 17.3344C149.759 16.8168 150.559 17.4823 151.373 17.4272C151.595 17.4117 151.388 17.2657 151.579 17.2173C152.332 17.0278 152.84 17.1874 153.663 16.8107C153.803 16.7485 154.411 16.1588 154.93 16.4079C155.004 16.444 154.858 16.6706 155.192 16.6497C155.687 16.62 156.573 16.4826 157.076 16.3087C157.452 16.1792 156.944 15.9607 157.448 15.954C157.671 15.951 157.314 16.2202 157.73 16.1991C158.143 16.1796 159.164 15.9398 159.555 15.8401C159.941 15.7424 159.673 15.556 159.701 15.5327C159.864 15.3985 160.584 15.1035 160.647 15.0878C163.376 14.3904 166.003 13.9301 168.589 13.1181C169.117 12.9524 169.64 12.7733 170.163 12.5751C170.406 12.4832 170.161 12.295 170.197 12.2785C171.008 11.8932 170.559 12.7627 171.222 12.7791C170.97 12.3158 171.35 12.287 171.924 12.0288C172.201 11.9037 171.98 11.7672 171.999 11.7388C172.324 11.303 172.746 11.5731 172.849 11.6226C173.229 11.8041 173.418 11.3653 173.674 11.4851C173.931 11.6029 173.588 12.0349 174.157 11.8284C174.254 11.5963 173.669 11.2887 174.074 11.0608C175.597 10.204 178.751 9.43903 180.069 8.99017C181.385 8.54297 181.793 8.35519 182.577 8.13833C183.993 7.74919 183.365 7.59482 184.165 7.13007C184.971 6.66561 184.85 7.65231 185.038 7.78773C185.222 7.92447 185.287 7.69302 185.474 7.73827C185.659 7.78411 185.378 8.02102 185.743 7.93381C186.105 7.84705 186.964 7.19304 187.026 6.96234C187.158 6.47237 186.573 6.19849 187.573 6.03076C187.63 6.0217 187.527 6.30127 187.742 6.25542C189.269 5.92298 190.815 5.48359 192.363 5.2293C192.551 5.19859 192.741 5.17154 192.934 5.14853C193.172 5.12158 193.016 5.41904 193.154 5.40701C194.592 5.30723 194.009 4.97533 194.743 4.37721C194.651 5.04553 195.134 5.36398 196.207 5.27356C196.854 5.22399 196.723 4.95234 197.137 4.72683C197.259 4.65884 197.736 4.8301 197.817 4.69443C198.077 4.25134 197.613 3.77336 198.77 3.9383C198.82 3.94656 198.667 4.18739 198.839 4.19855C199.96 4.27867 200.088 3.82467 201.309 3.79532C202.266 3.77257 203.932 4.13504 205.002 4.26136C204.923 4.98422 205.948 4.89507 206.394 4.43141C207.091 4.51192 207.842 4.55558 208.499 4.69347C208.727 4.74088 208.554 4.93472 208.58 4.96037C208.989 5.36205 209.341 4.91008 209.491 4.90735C211.129 4.90273 212.396 5.43661 213.983 5.28758C214.038 5.28212 214.194 4.79288 214.553 5.21546C214.577 5.24441 214.037 5.40142 214.758 5.5199C215.484 5.63897 216.792 6.10343 217.837 6.02684C218.083 6.00736 218.756 5.69589 219.205 6.09118C219.263 6.14436 219.169 6.27641 219.25 6.3708C219.512 6.67232 219.758 6.19406 220.049 6.6802C220.346 7.1674 221.025 7.60572 222.084 7.47835C222.118 7.47503 222.42 7.11471 222.735 7.17412C223.243 7.26993 223.938 7.47358 224.467 7.56207C224.721 7.60432 224.601 7.32861 224.646 7.33165C224.757 7.34162 224.866 7.35282 224.974 7.36514C224.977 7.36565 224.987 7.36783 224.99 7.36854C226.524 7.64182 227.625 8.12848 229.269 8.65645C229.593 8.7606 230.619 8.68066 231.179 9.11518C231.794 9.59243 230.754 10.5839 232.418 10.7416C233.086 10.8066 234.326 9.5292 235.252 10.6405C237.537 11.0906 239.472 12.1007 241.782 12.4991C241.886 12.5172 242.328 12.1943 242.563 12.2719C242.911 12.3875 243.04 12.6403 243.287 12.7296C244.312 13.1059 245.323 13.2323 246.321 13.5667C246.701 13.6935 246.502 13.8534 246.957 14.0052C247.411 14.1564 247.795 13.9834 248.373 14.3009C248.81 14.5419 249.107 15.2274 249.71 15.481C249.896 14.9513 250.322 15.0938 251.118 15.1808C251.273 15.1979 251.172 14.9633 251.249 14.9617C251.562 14.9517 251.764 15.1818 252.067 15.1591C252.14 15.1536 252.199 14.9711 252.261 14.9562C252.788 14.8207 253.405 15.4547 253.513 15.5648C253.711 15.7666 253.88 15.8307 254.039 15.867C254.218 15.9082 254.386 15.9165 254.561 16.0286C254.899 16.244 254.305 16.2167 254.723 16.4095C255.594 16.8103 256.766 17.11 257.695 17.3697C258.066 17.472 257.879 17.1568 257.934 17.1657C258.713 17.3085 259.42 17.7691 259.97 17.3794C260.194 18.7877 260.462 17.3737 261.499 17.8758C261.582 17.9156 261.559 18.5483 261.205 18.564C260.847 18.5784 260.378 18.2698 259.883 18.2953C259.767 18.3022 258.995 18.7105 258.898 18.7215C258.153 18.8159 258.294 17.8886 258.273 17.8306C258.009 17.1913 257.094 17.5935 256.874 17.5773C255.906 17.5161 255.163 17.1667 254.358 17.0797C254.021 17.0436 253.805 17.2709 253.588 17.397C253.475 17.4656 253.361 17.505 253.226 17.4582C251.938 17.011 251.733 16.0598 250.296 16.3938C249.99 16.465 250.049 17.1796 249.268 16.3936C249.217 16.3434 248.665 15.6736 248.17 15.8389C248.108 15.8599 248.052 16.0458 247.981 16.0413C247.509 16.0068 247.249 15.7655 246.746 15.6886C246.235 15.6095 245.621 15.5367 245.086 15.3041C244.765 15.1645 244.439 14.6866 244.307 14.5536C243.93 14.1716 243.323 14.4239 243.133 14.0433C242.941 13.6602 243.631 13.3774 242.948 12.9598C242.774 13.4341 242.561 13.9103 242.369 14.3823C240.755 13.8732 239.205 13.2363 237.572 12.777C237.369 12.7205 237.499 13.0415 237.279 12.9877C236.355 12.76 235.612 12.3417 234.644 12.1428C233.894 11.9899 233.013 12.0377 232.226 11.8924C231.915 11.2055 230.721 11.0775 229.909 10.8041C229.623 10.7081 229.683 10.5645 229.489 10.4606C228.76 10.0734 228.992 10.6634 228.758 10.6843C227.758 10.7751 227.971 9.63669 226.878 9.38785C226.82 9.37396 225.97 9.79529 225.865 9.80909C225.194 9.90122 225.814 9.57586 225.443 9.43822C225.124 9.32065 224.857 9.2026 224.578 9.10846L224.669 9.12721C224.331 9.03713 223.976 8.97886 223.513 8.9978C223.265 9.0096 222.604 9.28666 222.18 8.91515C222.124 8.86642 222.192 8.67156 222.144 8.65144C221.272 8.305 221.132 8.93017 220.581 9.05944C220.036 9.18961 219.287 8.62326 219.148 8.47279C218.774 8.0806 219.496 8.38558 219.526 8.35777C219.859 8.02196 219.262 7.99339 218.82 7.89125C218.85 7.26156 218.213 7.20033 218.356 7.78721C218.372 7.85137 218.733 7.84853 218.82 7.89125C218.321 8.4352 217.639 8.4087 216.951 7.72415C216.632 7.40438 217.022 7.14377 215.915 7.09702C215.413 7.0763 215.541 7.53091 215.093 7.58538C214.058 7.70795 212.834 7.13533 211.795 7.06827C211.422 7.04443 211.753 7.32411 211.498 7.31613C210.817 7.29564 210.254 7.04979 209.558 7.06248C209.496 7.06406 209.618 7.32653 209.408 7.30609C207.816 7.15784 206.447 6.86499 204.795 6.73981C203.989 6.67702 202.557 6.73385 201.738 6.68216C200.315 6.58419 198.563 6.23362 197.363 6.39145C196.585 6.49345 196.773 6.73279 196.46 6.92519C195.857 7.2952 194.693 6.85725 194.53 6.79529C194.522 6.7917 195.168 6.64327 194.801 6.56578C194.559 6.33249 194.537 6.79326 194.53 6.79529C194.416 6.74407 193.126 6.92404 192.893 7.0401C192.828 7.06884 192.83 7.13711 192.839 7.20061C192.846 7.26249 192.861 7.31984 192.826 7.33285C191.139 7.95924 189.42 8.55954 187.613 9.05646C187.58 9.06259 187.543 8.79842 187.467 8.81601C186.4 9.05684 185.847 9.59417 185.065 10.078C184.281 10.5629 183.589 10.7498 182.929 10.5139C182.306 10.8038 181.318 10.9592 180.742 11.0446C180.171 11.1285 180.273 11.6348 180.229 11.6617C178.881 12.5072 177.934 12.5482 176.392 13.0613C175.659 13.3048 174.239 13.8915 173.464 14.22C172.852 14.4811 172.435 14.4979 171.879 14.7675C171.804 14.8037 171.956 14.992 171.935 15.0084C171.374 15.4849 171.508 14.8534 171.343 14.8045C170.742 14.6252 170.384 14.5431 169.607 14.974C169.533 15.0146 169.437 15.1967 169.325 15.4083C169.168 15.7117 168.973 16.0777 168.768 16.1708C168.329 16.3705 168.419 16.0425 167.953 16.2589C167.912 16.2773 167.974 16.4435 167.676 16.5264C166.281 16.9156 164.731 17.2496 163.285 17.6483C163.087 17.7021 163.413 17.9065 163.127 17.9888C161.785 18.3744 160.292 18.7246 158.938 18.892C158.602 18.9329 158.766 18.6953 158.682 18.6542C158.175 18.4058 157.668 19.0384 157.564 19.07C155.186 19.821 153.227 19.708 150.767 20.3165C150.629 20.3519 149.668 21.0523 149.126 20.6519C149.09 20.6255 148.565 20.2127 148.198 20.5945C148.175 20.6184 148.499 20.8255 147.988 20.8683C147.486 20.9098 146.682 21.1788 145.963 20.9882C145.734 20.9285 145.157 20.5115 144.548 20.962C144.511 20.9937 143.579 21.9616 143.161 21.3999C143.092 21.3072 143.096 20.6728 142.339 21.068C142.197 21.144 142.479 21.2605 142.095 21.3832C141.504 21.5722 140.687 21.4692 139.964 21.8045C139.837 21.8639 139.311 22.3322 138.847 22.0354C138.774 21.9889 138.892 21.7696 138.656 21.7611C137.531 21.7194 136.377 21.921 135.238 21.8205C134.833 21.785 135.023 21.4359 134.607 21.3597C134.192 21.2837 133.34 21.2217 132.916 21.3877C132.485 21.5541 132.975 22.0877 132.319 22.1456C132.121 22.1629 131.921 22.1773 131.721 22.1892C129.054 22.348 126.393 22.0166 123.727 21.7981C123.301 21.7625 123.643 21.9819 123.013 21.9407C120.694 21.8071 116.682 21.4948 114.773 20.7507C113.244 20.1642 115.275 20.243 114.091 19.9102C113.527 19.7504 112.788 20.2612 112.645 20.2553C111.239 20.2059 110.345 19.7426 109.106 19.5718C108.851 19.5364 109.045 19.8394 108.828 19.8063C108.081 19.6938 107.336 19.4124 106.637 19.2748C106.322 19.2132 106.333 19.4168 106.05 19.3358C105.371 19.144 104.783 18.9193 104.155 18.5773C104.098 18.5462 104.567 18.4097 104.062 18.2771C103.751 18.1956 103.416 18.0815 103.061 17.9676C102.501 17.7869 101.893 17.6042 101.288 17.5627C100.996 17.543 100.863 17.9718 100.349 17.5121C100.24 17.4152 100.543 16.9417 99.7227 17.1977C99.5877 17.2413 98.2464 17.5171 97.79 16.9648C97.6693 16.8197 97.4041 16.2855 97.0571 16.2564C97.0092 16.254 97.1215 16.5372 96.8411 16.48C95.8484 16.2724 94.8503 15.9482 93.8395 15.7213C93.5692 15.6611 93.8903 16.0183 93.4907 15.9211C92.392 15.6541 91.0655 15.1797 90.0373 14.7797C89.6589 14.632 89.9875 14.5179 89.9659 14.4877C89.6216 13.999 89.2078 14.3863 89.0489 14.367C88.0636 14.2412 87.4218 13.799 86.5444 13.5904C86.3024 13.5322 86.4008 13.8088 86.3474 13.8141C85.7974 13.8575 86.287 13.5679 85.9911 13.4274C85.1625 13.0322 84.191 12.7512 83.3058 12.5107C82.9808 12.4228 83.2623 12.7941 82.9717 12.7123C81.2498 12.2331 79.4857 11.6737 77.8635 11.0458C77.5571 10.9269 77.8134 10.7829 77.7612 10.7179C77.4014 10.2644 76.6177 10.516 76.4524 10.5145C75.7067 10.5099 75.4909 10.2572 74.8703 10.122C71.9169 9.4789 68.3739 8.49123 65.6147 7.92593C65.5464 7.91179 65.4786 7.89778 65.4113 7.88391C61.657 7.11391 58.7612 6.43182 55.1479 5.95703C54.9183 5.92689 55.1094 6.23637 54.9112 6.21404C52.3572 5.91441 49.8642 5.4851 47.3023 5.29551C47.0925 5.27961 47.366 5.57418 47.029 5.55777C46.3418 5.52639 45.4675 5.4269 44.7807 5.28089C44.4439 5.21002 44.9207 5.02457 44.5811 4.95799C43.794 4.80311 42.9366 4.71564 42.1193 4.70071C41.7684 4.69489 42.2764 5.00131 41.8228 4.97308C38.7484 4.79117 35.7403 4.73515 32.6537 4.4472C32.4414 4.42772 32.2404 3.8818 31.7931 4.0009C31.764 4.15445 31.7715 4.33378 31.762 4.49724C28.2129 4.68137 24.7094 4.91744 21.295 5.58028C20.4059 5.75414 19.521 5.93103 18.6426 6.12018C18.4561 6.16049 18.8408 6.37316 18.4808 6.45265C16.3961 6.91675 14.4437 7.47008 12.3818 7.83526C12.1771 7.87356 12.1185 7.34908 11.5626 7.62318C11.4633 7.66932 10.6357 8.04797 10.4643 8.24181C10.4422 8.26899 10.6796 8.43049 10.4202 8.54359C8.91333 9.19822 7.46043 9.94651 6.47842 10.7748C6.31918 10.9099 6.2842 10.5732 6.16701 10.672C5.56832 11.1866 5.26308 11.8839 5.0743 12.5737C4.9671 12.9787 4.85253 13.3667 4.71221 13.7374C4.3938 14.591 4.02234 14.1873 3.51512 14.5993C3.442 14.6584 3.35449 15.218 3.10302 15.2164C2.46349 15.2214 1.81072 14.8437 1.12507 14.8798C1.05112 14.8837 1.02645 15.1038 0.987711 15.2675C0.949177 15.4343 0.891406 15.5362 0.742588 15.23C0.720552 15.1804 0.682894 14.5328 0.589539 14.3665C0.52394 14.2465 0.241268 14.4027 0.169705 14.1681C0.0992768 13.931 0.349577 13.7282 0.290969 13.3539C0.233166 12.9784 -0.0863163 13.0774 0.022426 12.3662ZM178.159 11.4286C177.582 11.3805 177.819 12.2493 178.278 11.851C178.3 11.8308 178.188 11.4305 178.159 11.4286ZM239.408 12.5936C238.864 12.0177 238.25 12.4428 238.625 12.8732C239 13.3032 239.574 12.7685 239.408 12.5936ZM246.298 14.3834C245.622 13.8498 245.127 15.029 246.026 15.0354C246.078 15.0362 246.337 14.4145 246.298 14.3834ZM3.83348 12.3247C3.81949 12.3303 3.71807 12.7319 3.72761 12.7461C3.95827 13.0218 4.16028 12.2188 3.83348 12.3247ZM253.148 16.1395C252.964 15.9054 252.205 15.8847 252.446 16.1806C252.643 16.4198 253.383 16.4331 253.148 16.1395ZM151.465 17.8559C151.454 17.8443 151.152 17.8809 151.171 17.9545C151.228 18.1919 151.638 18.0555 151.465 17.8559ZM264.858 18.9525C263.079 18.6623 262.246 17.4158 264.092 17.854C264.43 17.9292 263.303 18.0673 263.724 18.231C264.501 18.531 265.116 17.9417 265.896 18.3915C266.037 18.474 264.961 18.9728 264.855 18.9535C264.856 18.9532 264.857 18.9528 264.858 18.9525ZM177.502 10.5222C177.488 10.5146 177.088 10.6501 177.083 10.6646C176.966 11.0111 177.773 10.7382 177.502 10.5222ZM133.766 18.9824C133.74 18.9587 132.765 18.9618 132.735 18.985C132.237 19.4646 134.214 19.4601 133.766 18.9824ZM205.017 4.28193C205.492 4.02885 206.061 4.04104 206.392 4.43086C205.943 4.37303 205.47 4.33244 205.017 4.28193Z" fill="#C7CA85"/>
</svg>
